<svg width="132" height="30" viewBox="0 0 132 30" fill="none" xmlns="http://www.w3.org/2000/svg">
<path d="M8.4955 29.132C7.1995 29.132 5.9755 28.892 4.8235 28.412C3.6715 27.956 2.7355 27.248 2.0155 26.288C1.3195 25.328 0.9715 24.128 0.9715 22.688C0.9715 21.44 1.2115 20.468 1.6915 19.772C2.1955 19.076 2.8075 18.584 3.5275 18.296C4.2475 18.008 4.9315 17.864 5.5795 17.864C4.9315 18.56 4.4395 19.328 4.1035 20.168C3.7675 21.008 3.5995 21.848 3.5995 22.688C3.5995 23.576 3.7915 24.404 4.1755 25.172C4.5835 25.94 5.1955 26.552 6.0115 27.008C6.8275 27.488 7.8595 27.728 9.1075 27.728C10.1875 27.728 11.2435 27.524 12.2755 27.116C13.3075 26.732 14.1475 26.156 14.7955 25.388C15.4675 24.596 15.8035 23.624 15.8035 22.472C15.8035 21.44 15.5395 20.552 15.0115 19.808C14.4835 19.064 13.7995 18.404 12.9595 17.828C12.1435 17.252 11.2675 16.7 10.3315 16.172C9.3955 15.644 8.5075 15.092 7.6675 14.516C6.8515 13.916 6.1795 13.232 5.6515 12.464C5.1235 11.696 4.8595 10.772 4.8595 9.692C4.8595 8.684 5.0995 7.628 5.5795 6.524C6.0595 5.42 6.7435 4.376 7.6315 3.392C8.5435 2.408 9.6235 1.616 10.8715 1.016C12.1435 0.391999 13.5595 0.079999 15.1195 0.079999C16.5355 0.079999 17.5195 0.427999 18.0715 1.124C18.6235 1.796 18.8995 2.648 18.8995 3.68C18.8995 4.544 18.7435 5.48 18.4315 6.488C18.1435 7.472 17.7835 8.42 17.3515 9.332C16.9195 10.22 16.5115 10.976 16.1275 11.6C15.6955 11.504 15.3835 11.324 15.1915 11.06C15.0235 10.772 14.9395 10.436 14.9395 10.052C14.9395 9.548 15.0475 8.972 15.2635 8.324C15.4795 7.676 15.7195 7.004 15.9835 6.308C16.2715 5.612 16.5235 4.94 16.7395 4.292C16.9555 3.62 17.0635 3.02 17.0635 2.492C17.0635 2.012 16.9195 1.64 16.6315 1.376C16.3435 1.088 15.8155 0.943999 15.0475 0.943999C13.9195 0.943999 12.8755 1.208 11.9155 1.736C10.9555 2.264 10.1155 2.948 9.3955 3.788C8.6755 4.604 8.1115 5.468 7.7035 6.38C7.3195 7.292 7.1275 8.12 7.1275 8.864C7.1275 9.752 7.3795 10.52 7.8835 11.168C8.4115 11.792 9.0835 12.368 9.8995 12.896C10.7155 13.4 11.5795 13.916 12.4915 14.444C13.4275 14.948 14.3035 15.512 15.1195 16.136C15.9355 16.76 16.5955 17.504 17.0995 18.368C17.6275 19.208 17.8915 20.24 17.8915 21.464C17.8915 22.712 17.6155 23.816 17.0635 24.776C16.5115 25.712 15.7675 26.504 14.8315 27.152C13.9195 27.8 12.9115 28.292 11.8075 28.628C10.7035 28.964 9.5995 29.132 8.4955 29.132ZM23.1883 27.08C22.3723 27.08 21.7123 26.72 21.2083 26C20.7283 25.256 20.4883 24.404 20.4883 23.444C20.4883 22.748 20.5963 21.944 20.8123 21.032C21.0523 20.12 21.3403 19.22 21.6763 18.332C22.0123 17.444 22.3603 16.712 22.7203 16.136C23.0803 15.56 23.3923 15.272 23.6563 15.272C23.7763 15.272 23.9803 15.344 24.2683 15.488C24.5563 15.608 24.7963 15.776 24.9883 15.992C24.7243 16.4 24.4003 17.024 24.0163 17.864C23.6323 18.704 23.2963 19.604 23.0083 20.564C22.7203 21.524 22.5763 22.412 22.5763 23.228C22.5763 23.42 22.6003 23.72 22.6483 24.128C22.6963 24.512 22.8163 24.86 23.0083 25.172C23.2003 25.484 23.4883 25.64 23.8723 25.64C24.3283 25.64 24.7963 25.412 25.2763 24.956C25.7563 24.476 26.2363 23.864 26.7163 23.12C27.2203 22.376 27.7003 21.572 28.1563 20.708C28.6123 19.844 29.0323 19.016 29.4163 18.224C29.8243 17.432 30.1603 16.772 30.4243 16.244C30.5683 16.268 30.7723 16.316 31.0363 16.388C31.3243 16.46 31.5763 16.556 31.7923 16.676C32.0323 16.796 32.1523 16.964 32.1523 17.18C32.1523 17.276 32.0323 17.6 31.7923 18.152C31.5523 18.68 31.2643 19.34 30.9283 20.132C30.6163 20.9 30.3403 21.68 30.1003 22.472C29.8603 23.264 29.7403 23.96 29.7403 24.56C29.7403 24.992 29.8243 25.34 29.9923 25.604C30.1843 25.868 30.4963 26 30.9283 26C31.4323 26 32.0443 25.772 32.7643 25.316C33.4843 24.86 34.2163 24.2 34.9603 23.336C35.7043 22.448 36.3643 21.392 36.9403 20.168L37.4083 20.492C36.9043 21.788 36.2443 22.94 35.4283 23.948C34.6123 24.932 33.7483 25.7 32.8363 26.252C31.9243 26.804 31.0363 27.08 30.1723 27.08C29.5483 27.08 29.0443 26.96 28.6603 26.72C28.3003 26.48 28.0363 26.156 27.8683 25.748C27.7243 25.34 27.6523 24.896 27.6523 24.416C27.6523 24.128 27.6763 23.84 27.7243 23.552C27.7723 23.24 27.8323 22.928 27.9043 22.616C27.4723 23.408 27.0043 24.152 26.5003 24.848C25.9963 25.52 25.4683 26.06 24.9163 26.468C24.3643 26.876 23.7883 27.08 23.1883 27.08ZM42.5014 26.936C41.6854 26.936 41.0374 26.72 40.5574 26.288C40.1014 25.856 39.8734 25.292 39.8734 24.596C39.8734 23.876 40.0414 23.12 40.3774 22.328C40.7134 21.536 41.0374 20.756 41.3494 19.988C41.6854 19.196 41.8534 18.488 41.8534 17.864C41.8534 17.096 41.6254 16.532 41.1694 16.172C40.7374 15.788 40.2934 15.44 39.8374 15.128C39.2854 16.544 38.7094 17.888 38.1094 19.16C37.5094 20.432 37.0174 21.392 36.6334 22.04L36.3094 21.428C36.6454 20.804 37.0774 19.892 37.6054 18.692C38.1574 17.492 38.6974 16.124 39.2254 14.588C38.9854 14.348 38.8654 14.06 38.8654 13.724C38.8654 13.004 39.0694 12.416 39.4774 11.96C39.8854 11.504 40.1854 11.276 40.3774 11.276C40.6414 11.276 40.7854 11.396 40.8094 11.636C40.8574 11.852 40.8814 12.02 40.8814 12.14C40.8814 12.26 40.8094 12.5 40.6654 12.86C40.5454 13.196 40.4854 13.4 40.4854 13.472C40.4854 13.808 40.6654 14.12 41.0254 14.408C41.4094 14.672 41.8414 14.984 42.3214 15.344C42.8014 15.68 43.2214 16.1 43.5814 16.604C43.9654 17.084 44.1574 17.708 44.1574 18.476C44.1574 19.196 44.0014 19.928 43.6894 20.672C43.4014 21.416 43.1014 22.124 42.7894 22.796C42.5014 23.468 42.3574 24.056 42.3574 24.56C42.3574 24.992 42.4654 25.28 42.6814 25.424C42.8974 25.568 43.1494 25.64 43.4374 25.64C44.0134 25.64 44.6014 25.46 45.2014 25.1C45.8254 24.74 46.4254 24.284 47.0014 23.732C47.5774 23.18 48.0934 22.604 48.5494 22.004C49.0054 21.38 49.3414 20.804 49.5574 20.276L50.0254 20.636C49.5694 21.644 48.9454 22.64 48.1534 23.624C47.3614 24.584 46.4734 25.376 45.4894 26C44.5294 26.624 43.5334 26.936 42.5014 26.936ZM50.5171 27.692C49.7731 27.692 49.1491 27.44 48.6451 26.936C48.1171 26.456 47.8531 25.712 47.8531 24.704C47.8531 23.84 48.0451 22.916 48.4291 21.932C48.8131 20.924 49.3411 19.94 50.0131 18.98C50.6851 17.996 51.4411 17.108 52.2811 16.316C53.1451 15.5 54.0451 14.852 54.9811 14.372C55.9411 13.892 56.8891 13.652 57.8251 13.652C58.7611 13.652 59.5411 13.904 60.1651 14.408C60.7891 14.888 61.1011 15.536 61.1011 16.352C61.1011 16.952 60.9331 17.36 60.5971 17.576C60.2851 17.792 59.8651 17.9 59.3371 17.9C59.3851 17.708 59.4211 17.504 59.4451 17.288C59.4931 17.048 59.5171 16.832 59.5171 16.64C59.5171 16.088 59.3851 15.62 59.1211 15.236C58.8571 14.828 58.4011 14.624 57.7531 14.624C57.0811 14.624 56.3971 14.864 55.7011 15.344C55.0051 15.8 54.3331 16.424 53.6851 17.216C53.0371 17.984 52.4611 18.824 51.9571 19.736C51.4531 20.648 51.0571 21.548 50.7691 22.436C50.4811 23.324 50.3371 24.116 50.3371 24.812C50.3371 25.748 50.6611 26.216 51.3091 26.216C51.8611 26.216 52.4611 25.964 53.1091 25.46C53.7571 24.932 54.4171 24.272 55.0891 23.48C55.7851 22.664 56.4451 21.824 57.0691 20.96C57.6931 20.096 58.2451 19.304 58.7251 18.584C58.8211 18.44 58.8811 18.368 58.9051 18.368C59.0491 18.392 59.2291 18.44 59.4451 18.512C59.6851 18.584 59.8891 18.68 60.0571 18.8C60.2251 18.92 60.3091 19.076 60.3091 19.268C60.3091 19.484 60.2011 19.784 59.9851 20.168C59.7691 20.528 59.5291 20.948 59.2651 21.428C59.0011 21.908 58.7611 22.4 58.5451 22.904C58.3291 23.384 58.2211 23.84 58.2211 24.272C58.2211 24.632 58.3171 24.992 58.5091 25.352C58.7011 25.688 59.0131 25.856 59.4451 25.856C60.0931 25.856 60.9451 25.388 62.0011 24.452C63.0571 23.492 64.1251 22.064 65.2051 20.168L65.5651 20.528C65.0611 21.824 64.4131 22.964 63.6211 23.948C62.8291 24.932 61.9771 25.7 61.0651 26.252C60.1771 26.804 59.3011 27.08 58.4371 27.08C57.5491 27.08 56.8891 26.816 56.4571 26.288C56.0491 25.76 55.8451 25.184 55.8451 24.56C55.8451 24.416 55.8571 24.26 55.8811 24.092C55.9051 23.9 55.9291 23.708 55.9531 23.516C54.9211 24.908 53.9731 25.952 53.1091 26.648C52.2691 27.344 51.4051 27.692 50.5171 27.692ZM67.5288 27.656C66.4968 27.656 65.7048 27.356 65.1528 26.756C64.6008 26.156 64.3247 25.268 64.3247 24.092C64.3247 23.036 64.5167 21.74 64.9008 20.204C65.3088 18.644 65.8128 17.048 66.4128 15.416C66.1728 15.368 65.9448 15.332 65.7288 15.308C65.5128 15.26 65.3088 15.2 65.1168 15.128V14.48C65.3088 14.504 65.5368 14.528 65.8008 14.552C66.0648 14.576 66.3648 14.6 66.7008 14.624C67.2048 13.328 67.7448 12.08 68.3208 10.88C68.8968 9.656 69.4608 8.576 70.0128 7.64C70.5888 6.68 71.1288 5.924 71.6328 5.372C72.1608 4.796 72.6048 4.508 72.9648 4.508C73.1568 4.508 73.3248 4.58 73.4688 4.724C73.6367 4.844 73.7207 5.036 73.7207 5.3C73.7207 5.708 73.4688 6.38 72.9648 7.316C72.4608 8.228 71.8368 9.32 71.0928 10.592C70.3488 11.864 69.6288 13.244 68.9328 14.732C69.1488 14.732 69.3648 14.732 69.5808 14.732C69.8208 14.732 70.0488 14.732 70.2648 14.732C71.0568 14.732 71.8848 14.72 72.7488 14.696C73.6368 14.672 74.5248 14.612 75.4128 14.516V15.164C74.0928 15.308 72.9048 15.416 71.8488 15.488C70.8168 15.56 69.8928 15.596 69.0768 15.596C68.9808 15.596 68.8848 15.596 68.7888 15.596C68.7168 15.596 68.6328 15.596 68.5368 15.596C67.9848 16.868 67.5168 18.176 67.1328 19.52C66.7488 20.864 66.5568 22.172 66.5568 23.444C66.5568 24.476 66.7128 25.22 67.0248 25.676C67.3368 26.108 67.8528 26.324 68.5728 26.324C69.8208 26.324 71.0448 25.772 72.2448 24.668C73.4448 23.564 74.5008 22.064 75.4128 20.168L75.8808 20.528C75.3048 21.872 74.5728 23.084 73.6848 24.164C72.8208 25.244 71.8608 26.096 70.8048 26.72C69.7488 27.344 68.6567 27.656 67.5288 27.656ZM92.5544 29.132C92.0264 29.132 91.4144 28.82 90.7184 28.196C90.0224 27.572 89.2784 26.744 88.4864 25.712C87.7184 24.68 86.9504 23.564 86.1824 22.364C85.4384 21.14 84.7424 19.928 84.0944 18.728C83.4704 17.528 82.9424 16.46 82.5104 15.524L79.0184 26.828C78.8504 27.38 78.5864 27.764 78.2264 27.98C77.8664 28.22 77.4704 28.364 77.0384 28.412C76.6304 28.46 76.2224 28.484 75.8144 28.484C76.1264 27.812 76.4384 27.044 76.7504 26.18C77.0864 25.316 77.4704 24.272 77.9024 23.048C78.3584 21.824 78.8864 20.336 79.4864 18.584C80.0864 16.832 80.7944 14.744 81.6104 12.32C82.4504 9.872 83.4344 7.004 84.5624 3.716C84.6344 3.524 84.7304 3.26 84.8504 2.924C84.9704 2.564 85.0304 2.24 85.0304 1.952C85.0304 1.688 84.9704 1.484 84.8504 1.34C84.7304 1.172 84.5024 1.088 84.1664 1.088C83.5904 1.088 83.0264 1.328 82.4744 1.808C81.9464 2.264 81.4664 2.852 81.0344 3.572C80.6264 4.292 80.3024 5.036 80.0624 5.804C79.8224 6.572 79.7024 7.256 79.7024 7.856C79.7024 8.312 79.7624 8.72 79.8824 9.08C79.0904 9.08 78.5264 8.888 78.1904 8.504C77.8784 8.096 77.7224 7.604 77.7224 7.028C77.7224 6.212 77.9624 5.396 78.4424 4.58C78.9224 3.764 79.5344 3.02 80.2784 2.348C81.0464 1.652 81.8384 1.1 82.6544 0.692C83.4944 0.283999 84.2504 0.079999 84.9224 0.079999C85.5704 0.079999 86.0024 0.259999 86.2184 0.619998C86.4584 0.979998 86.5784 1.376 86.5784 1.808C86.5784 2.072 86.5424 2.336 86.4704 2.6C86.4224 2.864 86.3624 3.116 86.2904 3.356L83.2664 13.148C83.6024 12.668 84.0344 12.224 84.5624 11.816C85.1144 11.408 85.7144 10.94 86.3624 10.412C87.4424 9.548 88.5944 8.54 89.8184 7.388C91.0664 6.236 92.2544 5.024 93.3824 3.752C94.5104 2.48 95.4464 1.256 96.1904 0.079999C96.3104 0.223999 96.3944 0.475998 96.4424 0.835998C96.4904 1.196 96.5144 1.472 96.5144 1.664C96.5144 2.408 96.2024 3.224 95.5784 4.112C94.9784 5 94.1864 5.924 93.2024 6.884C92.2184 7.82 91.1384 8.756 89.9624 9.692C88.7864 10.604 87.6224 11.468 86.4704 12.284C85.3424 13.1 84.3224 13.808 83.4104 14.408C84.1304 15.632 84.8264 16.796 85.4984 17.9C86.1944 19.004 86.9384 20.084 87.7304 21.14C88.5464 22.196 89.4944 23.276 90.5744 24.38C91.6544 25.484 92.9624 26.672 94.4984 27.944C94.3304 28.256 94.0664 28.532 93.7064 28.772C93.3464 29.012 92.9624 29.132 92.5544 29.132ZM97.9631 26.936C97.0271 26.936 96.3311 26.636 95.8751 26.036C95.4191 25.46 95.1911 24.752 95.1911 23.912C95.1911 23.36 95.2871 22.664 95.4791 21.824C95.6951 20.984 95.9711 20.108 96.3071 19.196C96.6431 18.26 97.0271 17.384 97.4591 16.568C97.9151 15.752 98.3951 15.092 98.8991 14.588C99.4031 14.06 99.8951 13.796 100.375 13.796C100.591 13.796 100.771 13.868 100.915 14.012C101.083 14.132 101.167 14.324 101.167 14.588C101.167 14.876 100.975 15.344 100.591 15.992C100.231 16.64 99.7991 17.384 99.2951 18.224C98.7911 19.064 98.3471 19.952 97.9631 20.888C97.6031 21.8 97.4231 22.676 97.4231 23.516C97.4231 24.38 97.5671 24.956 97.8551 25.244C98.1431 25.532 98.5871 25.676 99.1871 25.676C100.003 25.676 100.867 25.268 101.779 24.452C102.715 23.636 103.699 22.208 104.731 20.168L105.055 20.528C104.359 22.592 103.351 24.176 102.031 25.28C100.735 26.384 99.3791 26.936 97.9631 26.936ZM102.283 10.448C101.899 10.448 101.551 10.352 101.239 10.16C100.951 9.968 100.807 9.668 100.807 9.26C100.807 8.756 101.095 8.324 101.671 7.964C102.271 7.58 102.859 7.388 103.435 7.388C103.795 7.388 104.083 7.472 104.299 7.64C104.515 7.808 104.623 8.096 104.623 8.504C104.623 8.96 104.371 9.404 103.867 9.836C103.387 10.244 102.859 10.448 102.283 10.448ZM107.115 27.656C106.083 27.656 105.291 27.356 104.739 26.756C104.187 26.156 103.911 25.268 103.911 24.092C103.911 23.036 104.103 21.74 104.487 20.204C104.895 18.644 105.399 17.048 105.999 15.416C105.759 15.368 105.531 15.332 105.315 15.308C105.099 15.26 104.895 15.2 104.703 15.128V14.48C104.895 14.504 105.123 14.528 105.387 14.552C105.651 14.576 105.951 14.6 106.287 14.624C106.791 13.328 107.331 12.08 107.907 10.88C108.483 9.656 109.047 8.576 109.599 7.64C110.175 6.68 110.715 5.924 111.219 5.372C111.747 4.796 112.191 4.508 112.551 4.508C112.743 4.508 112.911 4.58 113.055 4.724C113.223 4.844 113.307 5.036 113.307 5.3C113.307 5.708 113.055 6.38 112.551 7.316C112.047 8.228 111.423 9.32 110.679 10.592C109.935 11.864 109.215 13.244 108.519 14.732C108.735 14.732 108.951 14.732 109.167 14.732C109.407 14.732 109.635 14.732 109.851 14.732C110.643 14.732 111.471 14.72 112.335 14.696C113.223 14.672 114.111 14.612 114.999 14.516V15.164C113.679 15.308 112.491 15.416 111.435 15.488C110.403 15.56 109.479 15.596 108.663 15.596C108.567 15.596 108.471 15.596 108.375 15.596C108.303 15.596 108.219 15.596 108.123 15.596C107.571 16.868 107.103 18.176 106.719 19.52C106.335 20.864 106.143 22.172 106.143 23.444C106.143 24.476 106.299 25.22 106.611 25.676C106.923 26.108 107.439 26.324 108.159 26.324C109.407 26.324 110.631 25.772 111.831 24.668C113.031 23.564 114.087 22.064 114.999 20.168L115.467 20.528C114.891 21.872 114.159 23.084 113.271 24.164C112.407 25.244 111.447 26.096 110.391 26.72C109.335 27.344 108.243 27.656 107.115 27.656ZM116.048 27.692C115.304 27.692 114.68 27.44 114.176 26.936C113.648 26.456 113.384 25.712 113.384 24.704C113.384 23.84 113.576 22.916 113.96 21.932C114.344 20.924 114.872 19.94 115.544 18.98C116.216 17.996 116.972 17.108 117.812 16.316C118.676 15.5 119.576 14.852 120.512 14.372C121.472 13.892 122.42 13.652 123.356 13.652C124.292 13.652 125.072 13.904 125.696 14.408C126.32 14.888 126.632 15.536 126.632 16.352C126.632 16.952 126.464 17.36 126.128 17.576C125.816 17.792 125.396 17.9 124.868 17.9C124.916 17.708 124.952 17.504 124.976 17.288C125.024 17.048 125.048 16.832 125.048 16.64C125.048 16.088 124.916 15.62 124.652 15.236C124.388 14.828 123.932 14.624 123.284 14.624C122.612 14.624 121.928 14.864 121.232 15.344C120.536 15.8 119.864 16.424 119.216 17.216C118.568 17.984 117.992 18.824 117.488 19.736C116.984 20.648 116.588 21.548 116.3 22.436C116.012 23.324 115.868 24.116 115.868 24.812C115.868 25.748 116.192 26.216 116.84 26.216C117.392 26.216 117.992 25.964 118.64 25.46C119.288 24.932 119.948 24.272 120.62 23.48C121.316 22.664 121.976 21.824 122.6 20.96C123.224 20.096 123.776 19.304 124.256 18.584C124.352 18.44 124.412 18.368 124.436 18.368C124.58 18.392 124.76 18.44 124.976 18.512C125.216 18.584 125.42 18.68 125.588 18.8C125.756 18.92 125.84 19.076 125.84 19.268C125.84 19.484 125.732 19.784 125.516 20.168C125.3 20.528 125.06 20.948 124.796 21.428C124.532 21.908 124.292 22.4 124.076 22.904C123.86 23.384 123.752 23.84 123.752 24.272C123.752 24.632 123.848 24.992 124.04 25.352C124.232 25.688 124.544 25.856 124.976 25.856C125.624 25.856 126.476 25.388 127.532 24.452C128.588 23.492 129.656 22.064 130.736 20.168L131.096 20.528C130.592 21.824 129.944 22.964 129.152 23.948C128.36 24.932 127.508 25.7 126.596 26.252C125.708 26.804 124.832 27.08 123.968 27.08C123.08 27.08 122.42 26.816 121.988 26.288C121.58 25.76 121.376 25.184 121.376 24.56C121.376 24.416 121.388 24.26 121.412 24.092C121.436 23.9 121.46 23.708 121.484 23.516C120.452 24.908 119.504 25.952 118.64 26.648C117.8 27.344 116.936 27.692 116.048 27.692Z" fill="#2D2C2C"/>
</svg>
